<?xml version="1.0" encoding="us-ascii" standalone="no"?><svg xmlns="http://www.w3.org/2000/svg" xmlns:xlink="http://www.w3.org/1999/xlink" contentStyleType="text/css" height="979px" preserveAspectRatio="none" style="width:1277px;height:979px;background:#FFFFFF;" version="1.1" viewBox="0 0 1277 979" width="1277px" zoomAndPan="magnify"><defs/><g><text fill="#000000" font-family="sans-serif" font-size="14" font-weight="bold" lengthAdjust="spacing" textLength="518" x="381" y="29.5332">Bitka v0.3: OAuth Login and Access Resource Sequence (Password Grant)</text><rect fill="#FFFFFF" height="363.8359" style="stroke:#181818;stroke-width:1.0;" width="10" x="85.5" y="527.2734"/><rect fill="#FFFFFF" height="765.8906" style="stroke:#181818;stroke-width:1.0;" width="10" x="510.5" y="117.2188"/><rect fill="#FFFFFF" height="264.2969" style="stroke:#181818;stroke-width:1.0;" width="10" x="827.5" y="164.9219"/><rect fill="#FFFFFF" height="30.3516" style="stroke:#181818;stroke-width:1.0;" width="10" x="827.5" y="642.1641"/><rect fill="#FFFFFF" height="30.3516" style="stroke:#181818;stroke-width:1.0;" width="10" x="1214.5" y="195.2734"/><rect fill="none" height="348.3516" style="stroke:#000000;stroke-width:1.5;" width="811.5" x="459.5" y="124.2188"/><rect fill="none" height="138.2422" style="stroke:#000000;stroke-width:1.5;" width="735" x="469.5" y="283.9766"/><rect fill="none" height="396.5391" style="stroke:#000000;stroke-width:1.5;" width="889.5" x="10" y="486.5703"/><rect fill="none" height="181.5938" style="stroke:#000000;stroke-width:1.5;" width="869.5" x="20" y="542.2734"/><rect fill="none" height="94.8906" style="stroke:#000000;stroke-width:1.5;" width="541.5" x="20" y="781.2188"/><line style="stroke:#181818;stroke-width:0.5;stroke-dasharray:5.0,5.0;" x1="90" x2="90" y1="107.2188" y2="900.1094"/><line style="stroke:#181818;stroke-width:0.5;stroke-dasharray:5.0,5.0;" x1="515.5" x2="515.5" y1="107.2188" y2="900.1094"/><line style="stroke:#181818;stroke-width:0.5;stroke-dasharray:5.0,5.0;" x1="832.5" x2="832.5" y1="107.2188" y2="900.1094"/><line style="stroke:#181818;stroke-width:0.5;stroke-dasharray:5.0,5.0;" x1="1219" x2="1219" y1="107.2188" y2="900.1094"/><rect fill="#E2E2F0" height="31.6094" rx="2.5" ry="2.5" style="stroke:#181818;stroke-width:0.5;" width="121" x="30" y="74.6094"/><text fill="#000000" font-family="sans-serif" font-size="14" lengthAdjust="spacing" textLength="107" x="37" y="96.1426">Resource Server</text><rect fill="#E2E2F0" height="31.6094" rx="2.5" ry="2.5" style="stroke:#181818;stroke-width:0.5;" width="121" x="30" y="899.1094"/><text fill="#000000" font-family="sans-serif" font-size="14" lengthAdjust="spacing" textLength="107" x="37" y="920.6426">Resource Server</text><rect fill="#E2E2F0" height="31.6094" rx="2.5" ry="2.5" style="stroke:#181818;stroke-width:0.5;" width="72" x="479.5" y="74.6094"/><text fill="#000000" font-family="sans-serif" font-size="14" lengthAdjust="spacing" textLength="58" x="486.5" y="96.1426">Frontend</text><rect fill="#E2E2F0" height="31.6094" rx="2.5" ry="2.5" style="stroke:#181818;stroke-width:0.5;" width="72" x="479.5" y="899.1094"/><text fill="#000000" font-family="sans-serif" font-size="14" lengthAdjust="spacing" textLength="58" x="486.5" y="920.6426">Frontend</text><rect fill="#E2E2F0" height="31.6094" rx="2.5" ry="2.5" style="stroke:#181818;stroke-width:0.5;" width="94" x="785.5" y="74.6094"/><text fill="#000000" font-family="sans-serif" font-size="14" lengthAdjust="spacing" textLength="80" x="792.5" y="96.1426">Auth Service</text><rect fill="#E2E2F0" height="31.6094" rx="2.5" ry="2.5" style="stroke:#181818;stroke-width:0.5;" width="94" x="785.5" y="899.1094"/><text fill="#000000" font-family="sans-serif" font-size="14" lengthAdjust="spacing" textLength="80" x="792.5" y="920.6426">Auth Service</text><text fill="#000000" font-family="sans-serif" font-size="14" lengthAdjust="spacing" textLength="77" x="1178" y="104.1426">PostgreSQL</text><path d="M1201.5,53.6094 C1201.5,43.6094 1219.5,43.6094 1219.5,43.6094 C1219.5,43.6094 1237.5,43.6094 1237.5,53.6094 L1237.5,79.6094 C1237.5,89.6094 1219.5,89.6094 1219.5,89.6094 C1219.5,89.6094 1201.5,89.6094 1201.5,79.6094 L1201.5,53.6094 " fill="#E2E2F0" style="stroke:#181818;stroke-width:1.5;"/><path d="M1201.5,53.6094 C1201.5,63.6094 1219.5,63.6094 1219.5,63.6094 C1219.5,63.6094 1237.5,63.6094 1237.5,53.6094 " fill="none" style="stroke:#181818;stroke-width:1.5;"/><text fill="#000000" font-family="sans-serif" font-size="14" lengthAdjust="spacing" textLength="77" x="1178" y="913.6426">PostgreSQL</text><path d="M1201.5,926.7188 C1201.5,916.7188 1219.5,916.7188 1219.5,916.7188 C1219.5,916.7188 1237.5,916.7188 1237.5,926.7188 L1237.5,952.7188 C1237.5,962.7188 1219.5,962.7188 1219.5,962.7188 C1219.5,962.7188 1201.5,962.7188 1201.5,952.7188 L1201.5,926.7188 " fill="#E2E2F0" style="stroke:#181818;stroke-width:1.5;"/><path d="M1201.5,926.7188 C1201.5,936.7188 1219.5,936.7188 1219.5,936.7188 C1219.5,936.7188 1237.5,936.7188 1237.5,926.7188 " fill="none" style="stroke:#181818;stroke-width:1.5;"/><rect fill="#FFFFFF" height="363.8359" style="stroke:#181818;stroke-width:1.0;" width="10" x="85.5" y="527.2734"/><rect fill="#FFFFFF" height="765.8906" style="stroke:#181818;stroke-width:1.0;" width="10" x="510.5" y="117.2188"/><rect fill="#FFFFFF" height="264.2969" style="stroke:#181818;stroke-width:1.0;" width="10" x="827.5" y="164.9219"/><rect fill="#FFFFFF" height="30.3516" style="stroke:#181818;stroke-width:1.0;" width="10" x="827.5" y="642.1641"/><rect fill="#FFFFFF" height="30.3516" style="stroke:#181818;stroke-width:1.0;" width="10" x="1214.5" y="195.2734"/><path d="M459.5,124.2188 L593.5,124.2188 L593.5,132.5703 L583.5,142.5703 L459.5,142.5703 L459.5,124.2188 " fill="#EEEEEE" style="stroke:#000000;stroke-width:1.5;"/><rect fill="none" height="348.3516" style="stroke:#000000;stroke-width:1.5;" width="811.5" x="459.5" y="124.2188"/><text fill="#000000" font-family="sans-serif" font-size="13" font-weight="bold" lengthAdjust="spacing" textLength="89" x="474.5" y="138.7139">Login Process</text><polygon fill="#181818" points="815.5,160.9219,825.5,164.9219,815.5,168.9219,819.5,164.9219" style="stroke:#181818;stroke-width:1.0;"/><line style="stroke:#181818;stroke-width:1.0;" x1="520.5" x2="821.5" y1="164.9219" y2="164.9219"/><text fill="#000000" font-family="sans-serif" font-size="13" lengthAdjust="spacing" textLength="288" x="527.5" y="160.0654">1. POST /login (body: userneme/email, password)</text><polygon fill="#181818" points="1202.5,191.2734,1212.5,195.2734,1202.5,199.2734,1206.5,195.2734" style="stroke:#181818;stroke-width:1.0;"/><line style="stroke:#181818;stroke-width:1.0;" x1="837.5" x2="1208.5" y1="195.2734" y2="195.2734"/><text fill="#000000" font-family="sans-serif" font-size="13" lengthAdjust="spacing" textLength="356" x="844.5" y="190.417">2. Query: SELECT username, email, hashed_password, roles</text><polygon fill="#181818" points="848.5,221.625,838.5,225.625,848.5,229.625,844.5,225.625" style="stroke:#181818;stroke-width:1.0;"/><line style="stroke:#181818;stroke-width:1.0;stroke-dasharray:2.0,2.0;" x1="842.5" x2="1218.5" y1="225.625" y2="225.625"/><text fill="#000000" font-family="sans-serif" font-size="13" lengthAdjust="spacing" textLength="305" x="854.5" y="220.7686">3. Return: username, email, hashed_password, roles</text><line style="stroke:#181818;stroke-width:1.0;" x1="837.5" x2="879.5" y1="255.9766" y2="255.9766"/><line style="stroke:#181818;stroke-width:1.0;" x1="879.5" x2="879.5" y1="255.9766" y2="268.9766"/><line style="stroke:#181818;stroke-width:1.0;" x1="838.5" x2="879.5" y1="268.9766" y2="268.9766"/><polygon fill="#181818" points="848.5,264.9766,838.5,268.9766,848.5,272.9766,844.5,268.9766" style="stroke:#181818;stroke-width:1.0;"/><text fill="#000000" font-family="sans-serif" font-size="13" lengthAdjust="spacing" textLength="363" x="844.5" y="251.1201">4. Self-Message: Validate username/email &amp; hashed password</text><path d="M469.5,283.9766 L530.5,283.9766 L530.5,292.3281 L520.5,302.3281 L469.5,302.3281 L469.5,283.9766 " fill="#EEEEEE" style="stroke:#000000;stroke-width:1.5;"/><rect fill="none" height="138.2422" style="stroke:#000000;stroke-width:1.5;" width="735" x="469.5" y="283.9766"/><text fill="#000000" font-family="sans-serif" font-size="13" font-weight="bold" lengthAdjust="spacing" textLength="16" x="484.5" y="298.4717">alt</text><text fill="#000000" font-family="sans-serif" font-size="11" font-weight="bold" lengthAdjust="spacing" textLength="126" x="545.5" y="297.3955">[Successful Validation]</text><line style="stroke:#181818;stroke-width:1.0;" x1="837.5" x2="879.5" y1="324.6797" y2="324.6797"/><line style="stroke:#181818;stroke-width:1.0;" x1="879.5" x2="879.5" y1="324.6797" y2="337.6797"/><line style="stroke:#181818;stroke-width:1.0;" x1="838.5" x2="879.5" y1="337.6797" y2="337.6797"/><polygon fill="#181818" points="848.5,333.6797,838.5,337.6797,848.5,341.6797,844.5,337.6797" style="stroke:#181818;stroke-width:1.0;"/><text fill="#000000" font-family="sans-serif" font-size="13" lengthAdjust="spacing" textLength="348" x="844.5" y="319.8232">5. Self-Message: Generate JWT (Access &amp; Refresh Tokens)</text><polygon fill="#181818" points="531.5,364.0313,521.5,368.0313,531.5,372.0313,527.5,368.0313" style="stroke:#181818;stroke-width:1.0;"/><line style="stroke:#181818;stroke-width:1.0;stroke-dasharray:2.0,2.0;" x1="525.5" x2="826.5" y1="368.0313" y2="368.0313"/><text fill="#000000" font-family="sans-serif" font-size="13" lengthAdjust="spacing" textLength="212" x="537.5" y="363.1748">6. Return: Access &amp; Refresh Tokens</text><line style="stroke:#000000;stroke-width:1.0;stroke-dasharray:2.0,2.0;" x1="469.5" x2="1204.5" y1="377.0313" y2="377.0313"/><text fill="#000000" font-family="sans-serif" font-size="11" font-weight="bold" lengthAdjust="spacing" textLength="45" x="474.5" y="388.4502">[Failure]</text><polygon fill="#181818" points="531.5,410.2188,521.5,414.2188,531.5,418.2188,527.5,414.2188" style="stroke:#181818;stroke-width:1.0;"/><line style="stroke:#181818;stroke-width:1.0;stroke-dasharray:2.0,2.0;" x1="525.5" x2="826.5" y1="414.2188" y2="414.2188"/><text fill="#000000" font-family="sans-serif" font-size="13" lengthAdjust="spacing" textLength="162" x="537.5" y="409.3623">6. Return: 401 Unauthorized</text><line style="stroke:#181818;stroke-width:1.0;" x1="520.5" x2="562.5" y1="451.5703" y2="451.5703"/><line style="stroke:#181818;stroke-width:1.0;" x1="562.5" x2="562.5" y1="451.5703" y2="464.5703"/><line style="stroke:#181818;stroke-width:1.0;" x1="521.5" x2="562.5" y1="464.5703" y2="464.5703"/><polygon fill="#181818" points="531.5,460.5703,521.5,464.5703,531.5,468.5703,527.5,464.5703" style="stroke:#181818;stroke-width:1.0;"/><text fill="#000000" font-family="sans-serif" font-size="13" lengthAdjust="spacing" textLength="235" x="527.5" y="446.7139">7. Store Tokens (Local Storage/Cookies)</text><path d="M10,486.5703 L226,486.5703 L226,494.9219 L216,504.9219 L10,504.9219 L10,486.5703 " fill="#EEEEEE" style="stroke:#000000;stroke-width:1.5;"/><rect fill="none" height="396.5391" style="stroke:#000000;stroke-width:1.5;" width="889.5" x="10" y="486.5703"/><text fill="#000000" font-family="sans-serif" font-size="13" font-weight="bold" lengthAdjust="spacing" textLength="171" x="25" y="501.0654">Access Protected Resource</text><polygon fill="#181818" points="106.5,523.2734,96.5,527.2734,106.5,531.2734,102.5,527.2734" style="stroke:#181818;stroke-width:1.0;"/><line style="stroke:#181818;stroke-width:1.0;" x1="100.5" x2="509.5" y1="527.2734" y2="527.2734"/><text fill="#000000" font-family="sans-serif" font-size="13" lengthAdjust="spacing" textLength="304" x="112.5" y="522.417">8. Request Protected Resource (with Access Token)</text><path d="M20,542.2734 L81,542.2734 L81,550.625 L71,560.625 L20,560.625 L20,542.2734 " fill="#EEEEEE" style="stroke:#000000;stroke-width:1.5;"/><rect fill="none" height="181.5938" style="stroke:#000000;stroke-width:1.5;" width="869.5" x="20" y="542.2734"/><text fill="#000000" font-family="sans-serif" font-size="13" font-weight="bold" lengthAdjust="spacing" textLength="16" x="35" y="556.7686">alt</text><text fill="#000000" font-family="sans-serif" font-size="11" font-weight="bold" lengthAdjust="spacing" textLength="54" x="96" y="555.6924">[Exist kid]</text><line style="stroke:#181818;stroke-width:1.0;" x1="95.5" x2="137.5" y1="582.9766" y2="582.9766"/><line style="stroke:#181818;stroke-width:1.0;" x1="137.5" x2="137.5" y1="582.9766" y2="595.9766"/><line style="stroke:#181818;stroke-width:1.0;" x1="96.5" x2="137.5" y1="595.9766" y2="595.9766"/><polygon fill="#181818" points="106.5,591.9766,96.5,595.9766,106.5,599.9766,102.5,595.9766" style="stroke:#181818;stroke-width:1.0;"/><text fill="#000000" font-family="sans-serif" font-size="13" lengthAdjust="spacing" textLength="234" x="102.5" y="578.1201">9. Self-Message: Use cached public key</text><line style="stroke:#000000;stroke-width:1.0;stroke-dasharray:2.0,2.0;" x1="20" x2="889.5" y1="604.9766" y2="604.9766"/><text fill="#000000" font-family="sans-serif" font-size="11" font-weight="bold" lengthAdjust="spacing" textLength="72" x="25" y="616.3955">[Missing kid]</text><polygon fill="#181818" points="815.5,638.1641,825.5,642.1641,815.5,646.1641,819.5,642.1641" style="stroke:#181818;stroke-width:1.0;"/><line style="stroke:#181818;stroke-width:1.0;" x1="95.5" x2="821.5" y1="642.1641" y2="642.1641"/><text fill="#000000" font-family="sans-serif" font-size="13" lengthAdjust="spacing" textLength="174" x="102.5" y="637.3076">9. GET /.well-known/jwks.json</text><polygon fill="#181818" points="106.5,668.5156,96.5,672.5156,106.5,676.5156,102.5,672.5156" style="stroke:#181818;stroke-width:1.0;"/><line style="stroke:#181818;stroke-width:1.0;stroke-dasharray:2.0,2.0;" x1="100.5" x2="831.5" y1="672.5156" y2="672.5156"/><text fill="#000000" font-family="sans-serif" font-size="13" lengthAdjust="spacing" textLength="98" x="112.5" y="667.6592">9. Return: JWKS</text><line style="stroke:#181818;stroke-width:1.0;" x1="95.5" x2="137.5" y1="702.8672" y2="702.8672"/><line style="stroke:#181818;stroke-width:1.0;" x1="137.5" x2="137.5" y1="702.8672" y2="715.8672"/><line style="stroke:#181818;stroke-width:1.0;" x1="96.5" x2="137.5" y1="715.8672" y2="715.8672"/><polygon fill="#181818" points="106.5,711.8672,96.5,715.8672,106.5,719.8672,102.5,715.8672" style="stroke:#181818;stroke-width:1.0;"/><text fill="#000000" font-family="sans-serif" font-size="13" lengthAdjust="spacing" textLength="272" x="102.5" y="698.0107">9. Self-Message: Cache public key from JWKS</text><line style="stroke:#181818;stroke-width:1.0;" x1="95.5" x2="137.5" y1="753.2188" y2="753.2188"/><line style="stroke:#181818;stroke-width:1.0;" x1="137.5" x2="137.5" y1="753.2188" y2="766.2188"/><line style="stroke:#181818;stroke-width:1.0;" x1="96.5" x2="137.5" y1="766.2188" y2="766.2188"/><polygon fill="#181818" points="106.5,762.2188,96.5,766.2188,106.5,770.2188,102.5,766.2188" style="stroke:#181818;stroke-width:1.0;"/><text fill="#000000" font-family="sans-serif" font-size="13" lengthAdjust="spacing" textLength="401" x="102.5" y="748.3623">10. Self-Message: Validate Access Token (signature, expiry, scopes)</text><path d="M20,781.2188 L81,781.2188 L81,789.5703 L71,799.5703 L20,799.5703 L20,781.2188 " fill="#EEEEEE" style="stroke:#000000;stroke-width:1.5;"/><rect fill="none" height="94.8906" style="stroke:#000000;stroke-width:1.5;" width="541.5" x="20" y="781.2188"/><text fill="#000000" font-family="sans-serif" font-size="13" font-weight="bold" lengthAdjust="spacing" textLength="16" x="35" y="795.7139">alt</text><text fill="#000000" font-family="sans-serif" font-size="11" font-weight="bold" lengthAdjust="spacing" textLength="73" x="96" y="794.6377">[Valid Token]</text><polygon fill="#181818" points="498.5,817.9219,508.5,821.9219,498.5,825.9219,502.5,821.9219" style="stroke:#181818;stroke-width:1.0;"/><line style="stroke:#181818;stroke-width:1.0;stroke-dasharray:2.0,2.0;" x1="95.5" x2="504.5" y1="821.9219" y2="821.9219"/><text fill="#000000" font-family="sans-serif" font-size="13" lengthAdjust="spacing" textLength="183" x="102.5" y="817.0654">11. Return: Protected Resource</text><line style="stroke:#000000;stroke-width:1.0;stroke-dasharray:2.0,2.0;" x1="20" x2="561.5" y1="830.9219" y2="830.9219"/><text fill="#000000" font-family="sans-serif" font-size="11" font-weight="bold" lengthAdjust="spacing" textLength="81" x="25" y="842.3408">[Invalid Token]</text><polygon fill="#181818" points="498.5,864.1094,508.5,868.1094,498.5,872.1094,502.5,868.1094" style="stroke:#181818;stroke-width:1.0;"/><line style="stroke:#181818;stroke-width:1.0;stroke-dasharray:2.0,2.0;" x1="95.5" x2="504.5" y1="868.1094" y2="868.1094"/><text fill="#000000" font-family="sans-serif" font-size="13" lengthAdjust="spacing" textLength="169" x="102.5" y="863.2529">11. Return: 401 Unauthorized</text><!--SRC=[ZPJRSjem48Rl_HGxkSZ039ZGzEYBpkG0QLCo8J5fBZkAlO1Y8L59XgHFtvKiWs6IDZSShDrl__rtPSkjG3Zbjc2mEegF4xW-AUqSHch69J2PmqcMeJ5mYqQLEaD8yNU9adwqnioOjT8vN6WcRJkAbanRdl4b_OE3He9UeJu0Hf1qDsQebRGeStyu7EmUUXqkcMVe0qxk9j-Yd5dsm0p2mLWPEzEOtepywVbf5B7CyXMpw5ZHJAjo6HePQ-MwY2AW8-X-zQm4-Z6ChzC9z8IFQZse_3c1qg2MkC0UBXWN7LY6FjikVLF2gw47xjiHpqyJU1V3JOcQ6EbWD3YRL2Ysm0u4rfoPEUQ_QcG7j19eTi3K2D07T3SoZsEotvPQ9cy60kJO93Q4LiptCNahfjqhieNDC86VJF3SHTSbglRXC9JOsE352WjfwJTZMeewboj9P_kLFknNka29sbMwl9z0A-pN8RKurMZcC545IjDka0Wr72JmSMl3AqcKWu9sOqZ2Iut_HBm_wiETPBHaIlC_cBjSwPjhE5SFkLeQH_X4tLYbCLI4raXbJFXdr5plJAc28wcFFApQmQ2Mbj1YPidA-cviqRTf0f-TEBfSnhuG2gqrf_iGKBvukxarTBN2N0PFd0W5pttxjscD_x8_XpjoAcEPdstv87W61JxN5bvnOxYSxN6gYHBfOa2t9bwZ4Dr2ghNiFQuB4p-Qi06x1kwC8KYfnt1v_oFr0Vkk_qVycHFUq0rJhHOrBGnoczu_UdNTcuv2o_2PPAJCNR2d9TVF7J2PMlg9LlRwn2fyep7iHh-_xUk5OGTdlylLsn1lsb3tfgEdVm40]--></g></svg>