<?xml version="1.0" encoding="us-ascii" standalone="no"?><svg xmlns="http://www.w3.org/2000/svg" xmlns:xlink="http://www.w3.org/1999/xlink" contentStyleType="text/css" height="728px" preserveAspectRatio="none" style="width:1175px;height:728px;background:#FFFFFF;" version="1.1" viewBox="0 0 1175 728" width="1175px" zoomAndPan="magnify"><defs/><g><!--cluster Bitka v0.3--><g id="cluster_Bitka v0.3"><rect fill="none" height="617" rx="2.5" ry="2.5" style="stroke:#181818;stroke-width:1.0;" width="897" x="139" y="7"/><text fill="#000000" font-family="sans-serif" font-size="14" font-weight="bold" lengthAdjust="spacing" textLength="68" x="553.5" y="23.5332">Bitka v0.3</text></g><g id="elem_UC_Reg"><ellipse cx="590.0928" cy="335.9872" fill="#8FBC8F" rx="49.0928" ry="15.4872" style="stroke:#2F4F4F;stroke-width:0.5;"/><text fill="#000000" font-family="sans-serif" font-size="14" lengthAdjust="spacing" textLength="53" x="561.1382" y="340.3807">Register</text></g><g id="elem_UC_Login"><ellipse cx="247.734" cy="58.9517" fill="#8FBC8F" rx="36.234" ry="15.4517" style="stroke:#2F4F4F;stroke-width:0.5;"/><text fill="#000000" font-family="sans-serif" font-size="14" lengthAdjust="spacing" textLength="35" x="230.234" y="62.6802">Login</text></g><g id="elem_UC_KYC"><ellipse cx="589.8297" cy="516.0659" fill="#8FBC8F" rx="90.8297" ry="20.5659" style="stroke:#2F4F4F;stroke-width:0.5;"/><text fill="#000000" font-family="sans-serif" font-size="14" lengthAdjust="spacing" textLength="140" x="519.8297" y="519.7945">Manage KYC &amp; Profile</text></g><g id="elem_UC_VerifyEmail"><ellipse cx="938.602" cy="219.1136" fill="#8FBC8F" rx="64.602" ry="15.6136" style="stroke:#2F4F4F;stroke-width:0.5;"/><text fill="#000000" font-family="sans-serif" font-size="14" lengthAdjust="spacing" textLength="74" x="898.602" y="223.6302">Verify Email</text></g><g id="elem_UC_Invite"><ellipse cx="589.7877" cy="201.0575" fill="#8FBC8F" rx="78.2877" ry="18.0575" style="stroke:#2F4F4F;stroke-width:0.5;"/><text fill="#000000" font-family="sans-serif" font-size="14" lengthAdjust="spacing" textLength="110" x="533.0149" y="205.2774">Apply Invite Code</text></g><g id="elem_UC_ViewBal"><ellipse cx="247.566" cy="130.9132" fill="#8FBC8F" rx="92.566" ry="20.9132" style="stroke:#2F4F4F;stroke-width:0.5;"/><text fill="#000000" font-family="sans-serif" font-size="14" lengthAdjust="spacing" textLength="144" x="175.566" y="134.6417">View Balance &amp; History</text></g><g id="elem_UC_Dep"><ellipse cx="589.7859" cy="590.8572" fill="#8FBC8F" rx="72.2859" ry="16.8572" style="stroke:#2F4F4F;stroke-width:0.5;"/><text fill="#000000" font-family="sans-serif" font-size="14" lengthAdjust="spacing" textLength="94" x="539.7859" y="595.3738">Deposit Crypto</text></g><g id="elem_UC_With"><ellipse cx="589.9763" cy="442.0953" fill="#8FBC8F" rx="75.9763" ry="17.5953" style="stroke:#2F4F4F;stroke-width:0.5;"/><text fill="#000000" font-family="sans-serif" font-size="14" lengthAdjust="spacing" textLength="104" x="535.0467" y="446.5957">Withdraw Crypto</text></g><g id="elem_UC_CheckBal"><ellipse cx="938.6476" cy="150.9295" fill="#8FBC8F" rx="72.6476" ry="16.9295" style="stroke:#2F4F4F;stroke-width:0.5;"/><text fill="#000000" font-family="sans-serif" font-size="14" lengthAdjust="spacing" textLength="95" x="888.1476" y="155.4461">Check Balance</text></g><g id="elem_UC_Trade"><ellipse cx="590.08" cy="270.1227" fill="#8FBC8F" rx="66.08" ry="15.6227" style="stroke:#2F4F4F;stroke-width:0.5;"/><text fill="#000000" font-family="sans-serif" font-size="14" lengthAdjust="spacing" textLength="76" x="549.08" y="274.6393">Place Order</text></g><g id="elem_UC_Cancel"><ellipse cx="247.6119" cy="203.2224" fill="#8FBC8F" rx="69.1119" ry="16.2224" style="stroke:#2F4F4F;stroke-width:0.5;"/><text fill="#000000" font-family="sans-serif" font-size="14" lengthAdjust="spacing" textLength="85" x="202.1119" y="207.739">Cancel Order</text></g><g id="elem_UC_Mkt"><ellipse cx="247.2688" cy="270.1538" fill="#8FBC8F" rx="68.7688" ry="16.1538" style="stroke:#2F4F4F;stroke-width:0.5;"/><text fill="#000000" font-family="sans-serif" font-size="14" lengthAdjust="spacing" textLength="84" x="202.2688" y="274.6704">Market Order</text></g><g id="elem_UC_Lmt"><ellipse cx="247.6463" cy="337.0942" fill="#8FBC8F" rx="61.6463" ry="15.5942" style="stroke:#2F4F4F;stroke-width:0.5;"/><text fill="#000000" font-family="sans-serif" font-size="14" lengthAdjust="spacing" textLength="70" x="209.6463" y="341.6108">Limit Order</text></g><g id="elem_UC_Notify"><ellipse cx="938.7363" cy="441.2473" fill="#8FBC8F" rx="76.7363" ry="17.7473" style="stroke:#2F4F4F;stroke-width:0.5;"/><text fill="#000000" font-family="sans-serif" font-size="14" lengthAdjust="spacing" textLength="106" x="883.2006" y="445.6555">Send Notification</text></g><g id="elem_UC_Bonus"><ellipse cx="938.5075" cy="77.2015" fill="#8FBC8F" rx="81.5075" ry="18.7015" style="stroke:#2F4F4F;stroke-width:0.5;"/><text fill="#000000" font-family="sans-serif" font-size="14" lengthAdjust="spacing" textLength="118" x="879.1675" y="81.0304">Grant Initial Crypto</text></g><!--entity User--><g id="elem_User"><ellipse cx="49" cy="411.5" fill="#F1F1F1" rx="8" ry="8" style="stroke:#181818;stroke-width:0.5;"/><path d="M49,419.5 L49,446.5 M36,427.5 L62,427.5 M49,446.5 L36,461.5 M49,446.5 L62,461.5 " fill="none" style="stroke:#181818;stroke-width:0.5;"/><text fill="#000000" font-family="sans-serif" font-size="14" lengthAdjust="spacing" textLength="86" x="6" y="477.5332">Trader (User)</text></g><!--entity Chain--><g id="elem_Chain"><ellipse cx="938.5" cy="653.5" fill="#F1F1F1" rx="8" ry="8" style="stroke:#181818;stroke-width:0.5;"/><path d="M938.5,661.5 L938.5,688.5 M925.5,669.5 L951.5,669.5 M938.5,688.5 L925.5,703.5 M938.5,688.5 L951.5,703.5 " fill="none" style="stroke:#181818;stroke-width:0.5;"/><text fill="#000000" font-family="sans-serif" font-size="14" lengthAdjust="spacing" textLength="122" x="877.5" y="719.5332">Blockchain Network</text></g><!--entity Mailer--><g id="elem_Mailer"><ellipse cx="1125.5" cy="410.5" fill="#F1F1F1" rx="8" ry="8" style="stroke:#181818;stroke-width:0.5;"/><path d="M1125.5,418.5 L1125.5,445.5 M1112.5,426.5 L1138.5,426.5 M1125.5,445.5 L1112.5,460.5 M1125.5,445.5 L1138.5,460.5 " fill="none" style="stroke:#181818;stroke-width:0.5;"/><text fill="#000000" font-family="sans-serif" font-size="14" lengthAdjust="spacing" textLength="85" x="1083" y="476.5332">Email Service</text></g><!--link User to UC_Reg--><g id="link_User_UC_Reg"><path d="M92.16,449.84 C169.69,462.38 338.9,480.87 469,432 C485.25,425.9 485.52,417.93 499,407 C523.58,387.07 547.6077,368.1985 565.8777,353.9585 " fill="none" id="User-to-UC_Reg" style="stroke:#000000;stroke-width:1.0;"/><polygon fill="#000000" points="570.61,350.27,561.0525,352.6478,566.6664,353.3437,565.9705,358.9576,570.61,350.27" style="stroke:#000000;stroke-width:1.0;"/></g><!--link UC_Reg to UC_VerifyEmail--><g id="link_UC_Reg_UC_VerifyEmail"><path d="M631.9,327.71 C648.57,322.73 667.13,314.95 681,303 C702.09,284.82 688.01,263.71 711,248 C760.43,214.23 824.3571,209.9192 873.3971,212.2992 " fill="none" id="UC_Reg-to-UC_VerifyEmail" style="stroke:#000000;stroke-width:1.0;stroke-dasharray:7.0,7.0;"/><polygon fill="#000000" points="879.39,212.59,870.5945,208.1584,874.3959,212.3476,870.2067,216.149,879.39,212.59" style="stroke:#000000;stroke-width:1.0;"/><text fill="#000000" font-family="sans-serif" font-size="13" lengthAdjust="spacing" textLength="55" x="741.5" y="210.4951">&#171;include&#187;</text></g><!--link UC_Invite to UC_Reg--><g id="link_UC_Invite_UC_Reg"><path d="M530.59,212.92 C458.76,229.86 352.78,264.56 398,315 C435.49,356.82 500.2084,353.9264 544.5584,346.2264 " fill="none" id="UC_Invite-to-UC_Reg" style="stroke:#000000;stroke-width:1.0;stroke-dasharray:7.0,7.0;"/><polygon fill="#000000" points="550.47,345.2,540.9184,342.7985,545.5437,346.0553,542.2869,350.6806,550.47,345.2" style="stroke:#000000;stroke-width:1.0;"/><text fill="#000000" font-family="sans-serif" font-size="13" lengthAdjust="spacing" textLength="53" x="391" y="295.4951">&#171;extend&#187;</text><text fill="#000000" font-family="sans-serif" font-size="13" lengthAdjust="spacing" textLength="97" x="371" y="311.8467">(if code provided)</text></g><!--link UC_Invite to UC_Bonus--><g id="link_UC_Invite_UC_Bonus"><path d="M611.64,183.48 C634.45,165.05 673.02,136.61 711,121 C759.54,101.05 811.7628,90.794 857.0028,84.754 " fill="none" id="UC_Invite-to-UC_Bonus" style="stroke:#000000;stroke-width:1.0;stroke-dasharray:7.0,7.0;"/><polygon fill="#000000" points="862.95,83.96,853.4998,81.1862,857.994,84.6217,854.5585,89.1158,862.95,83.96" style="stroke:#000000;stroke-width:1.0;"/><text fill="#000000" font-family="sans-serif" font-size="13" lengthAdjust="spacing" textLength="55" x="739.5" y="70.4951">&#171;include&#187;</text><text fill="#000000" font-family="sans-serif" font-size="13" lengthAdjust="spacing" textLength="83" x="727.5" y="86.8467">(trigger ledger)</text></g><!--link UC_Reg to UC_Notify--><g id="link_UC_Reg_UC_Notify"><path d="M618.18,348.76 C642.21,359.7 678.4,375.32 711,386 C767.53,404.51 827.9493,418.6613 874.1593,428.4113 " fill="none" id="UC_Reg-to-UC_Notify" style="stroke:#000000;stroke-width:1.0;stroke-dasharray:7.0,7.0;"/><polygon fill="#000000" points="880.03,429.65,872.0497,423.8781,875.1377,428.6178,870.3981,431.7058,880.03,429.65" style="stroke:#000000;stroke-width:1.0;"/><text fill="#000000" font-family="sans-serif" font-size="13" lengthAdjust="spacing" textLength="55" x="741.5" y="382.4951">&#171;include&#187;</text></g><!--link User to UC_Login--><g id="link_User_UC_Login"><path d="M54.07,402.83 C63.33,321.19 88.52,136.7 131,92 C151.69,70.23 179.6801,63.1105 205.4301,60.5205 " fill="none" id="User-to-UC_Login" style="stroke:#000000;stroke-width:1.0;"/><polygon fill="#000000" points="211.4,59.92,202.0449,56.8408,206.4251,60.4204,202.8455,64.8006,211.4,59.92" style="stroke:#000000;stroke-width:1.0;"/></g><!--link User to UC_KYC--><g id="link_User_UC_KYC"><path d="M67.38,481.08 C80.82,506.07 102.04,536.44 131,551 C268.51,620.13 453.3652,567.1914 538.7852,535.9414 " fill="none" id="User-to-UC_KYC" style="stroke:#000000;stroke-width:1.0;"/><polygon fill="#000000" points="544.42,533.88,534.5936,533.2156,539.7244,535.5978,537.3421,540.7286,544.42,533.88" style="stroke:#000000;stroke-width:1.0;"/></g><!--link UC_KYC to UC_Notify--><g id="link_UC_KYC_UC_Notify"><path d="M678.38,510.96 C723.34,506.94 778.71,499.76 827,487 C854.52,479.73 878.8009,469.6143 900.4809,459.4143 " fill="none" id="UC_KYC-to-UC_Notify" style="stroke:#000000;stroke-width:1.0;stroke-dasharray:7.0,7.0;"/><polygon fill="#000000" points="905.91,456.86,896.0634,457.072,901.3857,458.9886,899.4692,464.3109,905.91,456.86" style="stroke:#000000;stroke-width:1.0;"/><text fill="#000000" font-family="sans-serif" font-size="13" lengthAdjust="spacing" textLength="55" x="739.5" y="467.4951">&#171;include&#187;</text><text fill="#000000" font-family="sans-serif" font-size="13" lengthAdjust="spacing" textLength="91" x="723.5" y="483.8467">(Status Update)</text></g><!--link User to UC_ViewBal--><g id="link_User_UC_ViewBal"><path d="M50.68,402.94 C53.82,344.3 68.32,233.55 131,169 C142.4,157.26 151.8386,151.1931 167.3286,145.5831 " fill="none" id="User-to-UC_ViewBal" style="stroke:#000000;stroke-width:1.0;"/><polygon fill="#000000" points="172.97,143.54,163.1458,142.8438,168.2688,145.2426,165.87,150.3657,172.97,143.54" style="stroke:#000000;stroke-width:1.0;"/></g><!--link User to UC_Dep--><g id="link_User_UC_Dep"><path d="M58.89,481.18 C69.4,517.33 90.79,568.94 131,593 C264.39,672.82 455.3891,631.2368 540.9391,606.3368 " fill="none" id="User-to-UC_Dep" style="stroke:#000000;stroke-width:1.0;"/><polygon fill="#000000" points="546.7,604.66,536.9407,603.3345,541.8992,606.0573,539.1764,611.0158,546.7,604.66" style="stroke:#000000;stroke-width:1.0;"/></g><!--link User to UC_With--><g id="link_User_UC_With"><path d="M86.33,481.19 C96.89,490.07 109.08,498.26 122,503 C266.8,556.09 323.99,555.5 469,503 C485.32,497.09 484.09,486.89 499,478 C513.45,469.38 524.7421,464.1334 539.9621,458.3434 " fill="none" id="User-to-UC_With" style="stroke:#000000;stroke-width:1.0;"/><polygon fill="#000000" points="545.57,456.21,535.7359,455.6714,540.8967,457.9878,538.5804,463.1487,545.57,456.21" style="stroke:#000000;stroke-width:1.0;"/></g><!--link UC_With to UC_CheckBal--><g id="link_UC_With_UC_CheckBal"><path d="M612.38,425.18 C635.51,407.7 674.06,380.62 711,364 C759.77,342.06 790.46,371.05 827,332 C872.26,283.63 815.26,237.44 857,186 C865.16,175.94 871.2801,171.0981 883.1601,165.9181 " fill="none" id="UC_With-to-UC_CheckBal" style="stroke:#000000;stroke-width:1.0;stroke-dasharray:7.0,7.0;"/><polygon fill="#000000" points="888.66,163.52,878.8114,163.4506,884.0767,165.5184,882.0089,170.7838,888.66,163.52" style="stroke:#000000;stroke-width:1.0;"/><text fill="#000000" font-family="sans-serif" font-size="13" lengthAdjust="spacing" textLength="55" x="741.5" y="328.4951">&#171;include&#187;</text></g><!--link UC_With to Chain--><g id="link_UC_With_Chain"><path d="M645.25,454.29 C658.53,459.62 671.6,467.21 681,478 C717.39,519.78 674.16,557.62 711,599 C753.59,646.84 819.9029,666.7981 871.3429,675.9581 " fill="none" id="UC_With-to-Chain" style="stroke:#000000;stroke-width:1.0;"/><polygon fill="#000000" points="877.25,677.01,869.0906,671.4941,872.3274,676.1334,867.6881,679.3702,877.25,677.01" style="stroke:#000000;stroke-width:1.0;"/><text fill="#000000" font-family="sans-serif" font-size="13" lengthAdjust="spacing" textLength="65" x="736.5" y="595.4951">(Trigger Tx)</text></g><!--link UC_With to UC_Notify--><g id="link_UC_With_UC_Notify"><path d="M665.93,443.48 C712.33,444.18 773.12,444.73 827,444 C838.51,443.84 844.7018,443.7461 856.6118,443.4561 " fill="none" id="UC_With-to-UC_Notify" style="stroke:#000000;stroke-width:1.0;stroke-dasharray:7.0,7.0;"/><polygon fill="#000000" points="862.61,443.31,853.5153,439.5303,857.6115,443.4317,853.71,447.5279,862.61,443.31" style="stroke:#000000;stroke-width:1.0;"/><text fill="#000000" font-family="sans-serif" font-size="13" lengthAdjust="spacing" textLength="55" x="741.5" y="440.4951">&#171;include&#187;</text></g><!--reverse link UC_Dep to Chain--><g id="link_UC_Dep_Chain"><path d="M608.1075,612.5923 C628.1675,636.7023 664.95,675.2 711,692 C764.78,711.62 830.6,706.35 877.39,698.15 " fill="none" id="UC_Dep-backto-Chain" style="stroke:#000000;stroke-width:1.0;stroke-dasharray:7.0,7.0;"/><polygon fill="#000000" points="604.27,607.98,606.9514,617.4568,607.4679,611.8236,613.1012,612.3401,604.27,607.98" style="stroke:#000000;stroke-width:1.0;"/><text fill="#000000" font-family="sans-serif" font-size="13" lengthAdjust="spacing" textLength="114" x="712" y="688.4951">(Incoming Tx Event)</text></g><!--link UC_Dep to UC_Notify--><g id="link_UC_Dep_UC_Notify"><path d="M655.38,583.63 C704.46,576.11 772.65,561.49 827,534 C865.48,514.53 898.0181,483.6 917.9281,462.54 " fill="none" id="UC_Dep-to-UC_Notify" style="stroke:#000000;stroke-width:1.0;stroke-dasharray:7.0,7.0;"/><polygon fill="#000000" points="922.05,458.18,912.9604,461.9721,918.6151,461.8133,918.7738,467.468,922.05,458.18" style="stroke:#000000;stroke-width:1.0;"/><text fill="#000000" font-family="sans-serif" font-size="13" lengthAdjust="spacing" textLength="55" x="741.5" y="530.4951">&#171;include&#187;</text></g><!--link User to UC_Trade--><g id="link_User_UC_Trade"><path d="M92.15,433.54 C195.32,412.71 453.34,359.84 469,349 C489.07,335.1 479.9,318.2 499,303 C511.5,293.05 521.596,287.8415 536.446,282.8215 " fill="none" id="User-to-UC_Trade" style="stroke:#000000;stroke-width:1.0;"/><polygon fill="#000000" points="542.13,280.9,532.323,279.9929,537.3933,282.5012,534.885,287.5715,542.13,280.9" style="stroke:#000000;stroke-width:1.0;"/></g><!--link User to UC_Cancel--><g id="link_User_UC_Cancel"><path d="M54.91,402.74 C62.78,356.35 82.63,279.92 131,236 C145.82,222.54 159.9466,215.9852 179.0866,211.2352 " fill="none" id="User-to-UC_Cancel" style="stroke:#000000;stroke-width:1.0;"/><polygon fill="#000000" points="184.91,209.79,175.2115,208.0755,180.0572,210.9943,177.1384,215.84,184.91,209.79" style="stroke:#000000;stroke-width:1.0;"/></g><!--link UC_Mkt to UC_Trade--><g id="link_UC_Mkt_UC_Trade"><path d="M316.59,270 C376.94,270 446.49,270 505.92,270 " fill="none" id="UC_Mkt-to-UC_Trade" style="stroke:#000000;stroke-width:1.0;"/><polygon fill="none" points="523.92,270,505.92,264,505.92,276,523.92,270" style="stroke:#000000;stroke-width:1.0;"/></g><!--link UC_Lmt to UC_Trade--><g id="link_UC_Lmt_UC_Trade"><path d="M306.73,341.41 C352.12,342.94 416.12,340.86 469,323 C484.18,317.87 484.71,310.25 499,303 C514.88,294.94 516.1999,293.7369 532.1499,288.2169 " fill="none" id="UC_Lmt-to-UC_Trade" style="stroke:#000000;stroke-width:1.0;"/><polygon fill="none" points="549.16,282.33,530.1876,282.5468,534.1122,293.8869,549.16,282.33" style="stroke:#000000;stroke-width:1.0;"/></g><!--link UC_Trade to UC_CheckBal--><g id="link_UC_Trade_UC_CheckBal"><path d="M636.95,258.85 C652.06,253.64 668.24,246.25 681,236 C700.02,220.71 690.61,203.41 711,190 C736.59,173.17 806.9512,163.1112 863.9812,157.2712 " fill="none" id="UC_Trade-to-UC_CheckBal" style="stroke:#000000;stroke-width:1.0;stroke-dasharray:7.0,7.0;"/><polygon fill="#000000" points="869.95,156.66,860.5893,153.5976,864.976,157.1693,861.4043,161.556,869.95,156.66" style="stroke:#000000;stroke-width:1.0;"/><text fill="#000000" font-family="sans-serif" font-size="13" lengthAdjust="spacing" textLength="55" x="739.5" y="143.4951">&#171;include&#187;</text><text fill="#000000" font-family="sans-serif" font-size="13" lengthAdjust="spacing" textLength="79" x="729.5" y="159.8467">(Ledger Lock)</text></g><!--link UC_Trade to UC_Notify--><g id="link_UC_Trade_UC_Notify"><path d="M653.24,274.44 C712.94,279.59 798.15,289.55 827,306 C876.47,334.2 910.0421,388.4982 925.8921,418.1582 " fill="none" id="UC_Trade-to-UC_Notify" style="stroke:#000000;stroke-width:1.0;stroke-dasharray:7.0,7.0;"/><polygon fill="#000000" points="928.72,423.45,928.006,413.6271,926.3634,419.0402,920.9503,417.3976,928.72,423.45" style="stroke:#000000;stroke-width:1.0;"/><text fill="#000000" font-family="sans-serif" font-size="13" lengthAdjust="spacing" textLength="55" x="741.5" y="277.4951">&#171;include&#187;</text></g><!--link UC_Notify to Mailer--><g id="link_UC_Notify_Mailer"><path d="M1015.01,441 C1038.19,441 1056.85,441 1076.88,441 " fill="none" id="UC_Notify-to-Mailer" style="stroke:#000000;stroke-width:1.0;"/><polygon fill="#000000" points="1082.88,441,1073.88,437,1077.88,441,1073.88,445,1082.88,441" style="stroke:#000000;stroke-width:1.0;"/></g><!--SRC=[XLNVJzim47xFNt7gmw3Io7wm9uGgGM6i6Z142sZIfCbohgqLruvijoNQzh_lRCSbIJNMbzHttvs_EzzdIvmxS1gCM2mT5C8WTqAhp9P2LSom5LICbso1KrTB1EzcQY6n1LXRvCmY_Cg0VkS4NnYzLiLOIstWWfboYkpA8Ae8qAP0qt9Avl3Ai3fupupHs-WybvGg-vDbZ3jQ3cQ6KI0SFbWqmm4m2_vVyfvBpKk-P4B1BRgjDcM0ZBqbOIvNJ4YOeja8Zi5zGmRAaJL5KXhXIWQRz_dnW0eAb0wEZexWZ7EgoL608jmAwI-PWp_LFxZ7XR0EJUGs_adhBk1QBuHAth3e-cDo-Ffz36_WpkWvaKjmCdR1ZsZ4l8PGKm95Mp1rmMTL9MkOg8rm26DTxD96Km2_5Fl4f4G7x-0QYmMrVA_IHu5REcd954UY-eNArgRUiI0lERiX5rXfAnoCJLqvdQ1axSAUX5iMXcrxE6_k0iTBv6NYa631wBT-gSLFZL2B_HhkQBmGllbXJE5XmdhR-FIo2uks_j6PabhMmTsKhdV-OYLwcEkLQv6TrZG_Aneshq6xptcAge1RxSHSSEOnAKsmrLqmQOgcTAA44qps-dckrTfwROLjxr66R7OfghXhTW0VSeW3RO8FFakzpRpY231Aunq_aEUZtlZ12PoU2iNbki3HADjD6kGfDY3msL59en7yK8TY3fmc4ogZDwB0OjYEYc61TZUrZtHqU_avbM5SXprMiJSzGbJWnno21b-qrYalwhDjyHACdzTIUq9JnnmHVQWAkjk6VhFZlA-gJkeacRRDQwEz3XgWL6Iddg7YzGdShAs39TiWhBJ2sj_asqP1MHEIk2Pjx9zCGFbDmcL9_iDPqz3Pyx2Vvb_TJFhsRUFnaeODLMM15OL1QzyswIsHjp2d1yA6v1G8ftd-ilb4SRtoafqzm-M6RjeTx3yKFkL9xPs-HLMtBOs0AMIYbZIppgzFO5PNQ47F8RnGDeiIfg3VxJn1iprZ-rG4vPZJQxEZqe1UFmS_DSrjUqqFsN0lx5z5DrU6xwhl6Nhn1UfDW2-vUUN-0W00]--></g></svg>