<svg width="76" height="49" viewBox="0 0 76 49" fill="none" xmlns="http://www.w3.org/2000/svg">
<path d="M38.7059 19.7657C37.2115 21.2691 34.7885 21.2691 33.2941 19.7657L24.4706 10.8889L10.8235 24.6184L27.1765 41.0701C28.6709 42.5735 28.6709 45.0111 27.1765 46.5145C25.6821 48.0179 23.2591 48.0179 21.7647 46.5145L0 24.6184L24.4706 0L38.7059 14.3213C40.2003 15.8247 40.2003 18.2623 38.7059 19.7657Z" fill="#F935A1"/>
<path d="M37.2941 29.2343C38.7885 27.7309 41.2115 27.7309 42.7059 29.2343L51.5294 38.1111L65.1765 24.3816L48.8235 7.92995C47.3291 6.42651 47.3291 3.98895 48.8235 2.48551C50.3179 0.982065 52.7409 0.982066 54.2353 2.48551L76 24.3816L51.5294 49L37.2941 34.6787C35.7997 33.1753 35.7997 30.7377 37.2941 29.2343Z" fill="#F935A1"/>
<path d="M28.2353 28.4058C26.1561 30.4975 22.7851 30.4975 20.7059 28.4058C18.6267 26.3141 18.6267 22.9227 20.7059 20.8309C22.7851 18.7392 26.1561 18.7392 28.2353 20.8309C30.3145 22.9227 30.3145 26.3141 28.2353 28.4058Z" fill="#FF008C"/>
<path d="M47.7647 20.5942C49.8439 18.5025 53.2149 18.5025 55.2941 20.5942C57.3733 22.6859 57.3733 26.0773 55.2941 28.1691C53.2149 30.2608 49.8439 30.2608 47.7647 28.1691C45.6855 26.0773 45.6855 22.6859 47.7647 20.5942Z" fill="#FF008C"/>
</svg>
